<?xml version="1.0" encoding="utf-8"?><svg xmlns="http://www.w3.org/2000/svg" xmlns:xlink="http://www.w3.org/1999/xlink" width="1280" height="721" preserveAspectRatio="xMidYMid" viewBox="0 0 1280 721" style="z-index:1;margin-right:-2px;display:block;background-repeat-y:initial;background-repeat-x:initial;background-color:rgb(255, 255, 255);animation-play-state:paused" ><g transform="translate(640,360.5) scale(1,1) translate(-640,-360.5)" style="transform:matrix(1, 0, 0, 1, 0, 0);animation-play-state:paused" ><linearGradient id="lg-0.7135952759733284" x1="0" x2="1" y1="0" y2="0" style="animation-play-state:paused" ><stop stop-color="#ff00ff" offset="0" style="animation-play-state:paused" ></stop>

  
<stop stop-color="#00ffff" offset="1" style="animation-play-state:paused" ></stop></linearGradient>
<path d="M 0 0 M 0 614.094 Q 128 651.899 256 648.939 T 512 627.904 T 768 555.748 T 1024 515.575 T 1280 515.622 L 1280 183.301 Q 1152 215.571 1024 209.563 T 768 176.477 T 512 93.7013 T 256 72.927 T 0 113.578 Z" fill="url(#lg-0.7135952759733284)" opacity="0.4" style="opacity:0.4;animation-play-state:paused" ></path>
<path d="M 0 0 M 0 665.093 Q 128 656.096 256 654.036 T 512 634.915 T 768 553.149 T 1024 559.547 T 1280 516.662 L 1280 186.95 Q 1152 173.869 1024 169.358 T 768 180.841 T 512 121.942 T 256 76.5652 T 0 39.2578 Z" fill="url(#lg-0.7135952759733284)" opacity="0.4" style="opacity:0.4;animation-play-state:paused" ></path>
<path d="M 0 0 M 0 655.935 Q 128 615.37 256 614.223 T 512 632.078 T 768 542.681 T 1024 552.648 T 1280 522.323 L 1280 229.537 Q 1152 178.249 1024 173.202 T 768 163.092 T 512 104.25 T 256 111.27 T 0 94.8219 Z" fill="url(#lg-0.7135952759733284)" opacity="0.4" style="opacity:0.4;animation-play-state:paused" ></path>
<path d="M 0 0 M 0 649.748 Q 128 611.918 256 606.896 T 512 576.105 T 768 578.434 T 1024 545.869 T 1280 506.905 L 1280 200.543 Q 1152 147.075 1024 146.506 T 768 157.697 T 512 100.839 T 256 82.9273 T 0 98.4096 Z" fill="url(#lg-0.7135952759733284)" opacity="0.4" style="opacity:0.4;animation-play-state:paused" ></path></g></svg>